<svg xmlns="http://www.w3.org/2000/svg" width="80" height="80"><g data-name="Raggruppa 245" transform="translate(-1438 -5052)"><circle data-name="Ellisse 22" cx="40" cy="40" r="40" transform="translate(1438 5052)" fill="#e7f9fb"/><path d="M1466.053 5076.101a5.059 5.059 0 00-5.053 5.053v5.053h3.368v20.21h8.421v-3.369h-5.052v-16.842h18.526v-5.052a1.686 1.686 0 011.684-1.684 1.657 1.657 0 011.684 1.684v25.263H1493v-25.263a5.078 5.078 0 00-5.053-5.053zm0 3.368h17.131a5.033 5.033 0 00-.289 1.684v1.685h-18.527v-1.684a1.687 1.687 0 011.685-1.685zm5.053 10.105v3.368h15.157v-3.367zm0 6.737v3.368h3.368v-3.367zm10.105 0a5.078 5.078 0 00-5.053 5.053 5.026 5.026 0 001.684 3.727v6.049l3.368-2.105 3.368 2.105v-6.049a5.026 5.026 0 001.684-3.727 5.078 5.078 0 00-5.051-5.052zm0 3.368a1.684 1.684 0 11-1.684 1.684 1.659 1.659 0 011.684-1.683z" fill="#2ed1dc"/></g></svg>