<svg xmlns="http://www.w3.org/2000/svg" width="80" height="80"><g data-name="Raggruppa 243" transform="translate(-1637 -5054)"><circle data-name="Ellisse 24" cx="40" cy="40" r="40" transform="translate(1637 5054)" fill="#fef3f9"/><path d="M1676.714 5078.608a6.052 6.052 0 00-4.568 1.94 6.226 6.226 0 00-1.527 4.16 6.226 6.226 0 001.527 4.155 6.052 6.052 0 004.568 1.94 6.052 6.052 0 004.568-1.94 6.226 6.226 0 001.528-4.155 6.226 6.226 0 00-1.527-4.16 6.052 6.052 0 00-4.569-1.94zm0 3.048a2.806 2.806 0 012.286.916 3.371 3.371 0 010 4.262 2.806 2.806 0 01-2.289.917 2.806 2.806 0 01-2.289-.917 3.371 3.371 0 010-4.262 2.806 2.806 0 012.292-.916zm11.429 12.19l-6.857 3.048v4.571a9.412 9.412 0 002.426 6.363 9.2 9.2 0 003.982 2.664l.449.14.449-.14a9.2 9.2 0 003.982-2.664 9.412 9.412 0 002.426-6.363v-4.571zm-11.429 1.524c-4.784 0-13.714 2.362-13.714 6.857v3.81h16.06a11.747 11.747 0 01-.729-3.048h-12.283v-.762c0-1.326 5.653-3.81 10.667-3.81.5 0 1.021.032 1.524.077v-1.6a2.845 2.845 0 01.366-1.417 16.837 16.837 0 00-1.891-.107zm11.429 1.81l3.81 1.693v2.592a6.187 6.187 0 01-1.643 4.321 5.936 5.936 0 01-2.167 1.485 5.936 5.936 0 01-2.167-1.485 6.187 6.187 0 01-1.643-4.321v-2.592z" fill="#f9a9d3"/></g></svg>