<svg xmlns="http://www.w3.org/2000/svg" width="512" height="512"><defs><clipPath id="b"><path data-name="Rettangolo 19068" fill="none" d="M0 0h388.452v160H0z"/></clipPath><clipPath id="a"><path d="M0 0h512v512H0z"/></clipPath></defs><g data-name="Tavola da disegno – 2" clip-path="url(#a)"><path fill="rgba(255,255,255,0)" d="M0 0h512v512H0z"/><rect data-name="Rettangolo 19150" width="512" height="512" rx="90" fill="#fff"/><g data-name="Raggruppa 214"><g data-name="Raggruppa 209" transform="translate(61.774 176)" clip-path="url(#b)" fill="#2cc9d5"><path data-name="Tracciato 8" d="M382.335 50.88v-.008a72.6 72.6 0 00-15.874-22.918 76.632 76.632 0 00-23.324-15.421 73.8 73.8 0 00-56.776.07 73.766 73.766 0 00-39.119 38.885 70.472 70.472 0 00-5.82 28.5 69.879 69.879 0 005.812 28.388 75.433 75.433 0 0015.8 23.259 73.955 73.955 0 0023.315 15.727 71.327 71.327 0 0028.505 5.751 87.167 87.167 0 0015.779-1.31 72.184 72.184 0 0012.569-3.444 51.243 51.243 0 009.773-4.909 63.879 63.879 0 007.526-5.79 14.685 14.685 0 004.1-4.752 16.118 16.118 0 001.666-5.174 13.449 13.449 0 00-.265-5.089 16.3 16.3 0 00-2-4.8 17.545 17.545 0 00-3.2-3.921 11.652 11.652 0 00-4.068-2.462 15.105 15.105 0 00-6.958-.514 19.548 19.548 0 00-8.268 3.731c-6.211 5.745-15.43 8.774-26.658 8.774a43.951 43.951 0 01-12.992-1.916 41.451 41.451 0 01-11.346-5.509 42.157 42.157 0 01-9.084-8.595 39 39 0 01-6.117-11.4l-1.009-2.958h99.487c4.5 0 7.995-1.27 10.708-3.879 2.665-2.6 3.959-5.916 3.959-10.2a72.807 72.807 0 00-6.117-28.115m-23.967 18.217h-84.986l.771-2.812a38.487 38.487 0 0115.009-21.453 44.427 44.427 0 0112.136-6 50.568 50.568 0 0128.645-.171 43 43 0 0112.243 5.828 40.172 40.172 0 019.554 9.39 37.592 37.592 0 015.876 12.414z"/><path data-name="Tracciato 9" d="M93.968 126.937h-59.52l-6.516 15.956a13.886 13.886 0 01-8.144 7.806 15.6 15.6 0 01-5.665.895 15.06 15.06 0 01-5.84-1.3 13.607 13.607 0 01-4.826-3.309A12.653 12.653 0 01.7 142.327a14.529 14.529 0 01-.668-5.448 17.35 17.35 0 011.4-5.774l49.3-114.327a15.016 15.016 0 015.328-6.562 14.364 14.364 0 0121.174 6.452l49.632 114.436a16.4 16.4 0 011.407 5.665 15.568 15.568 0 01-.622 5.448 12.913 12.913 0 01-7.3 8.079 14.771 14.771 0 01-5.721 1.3 15.06 15.06 0 01-5.621-.951 14.562 14.562 0 01-4.824-2.98 15.575 15.575 0 01-3.482-4.77zM46.236 97.744h35.715L64.2 54.632z"/><path data-name="Tracciato 10" d="M240.498 28.458a12.5 12.5 0 013.143 4.66 14.834 14.834 0 010 10.783 13.5 13.5 0 01-3.143 4.772 14.155 14.155 0 01-4.826 3.2 15.688 15.688 0 01-5.5 1.116 14.315 14.315 0 01-5.5-.951 13.108 13.108 0 01-4.724-3.034 42.819 42.819 0 00-14.65-9.761 45.252 45.252 0 00-16.677-3.143 42.132 42.132 0 00-16.68 3.363 44.716 44.716 0 00-13.917 9.267 43.478 43.478 0 00-9.5 13.929 42.826 42.826 0 00-3.482 17.236 43.912 43.912 0 0026 40.319 42.192 42.192 0 0017.126 3.692 42.941 42.941 0 0016.56-2.96 45.7 45.7 0 0014.888-9.944 12.417 12.417 0 014.714-2.978 16.4 16.4 0 0111 0 13.122 13.122 0 014.714 2.868 14.2 14.2 0 013.2 4.826 14.792 14.792 0 011.068 5.5 15.5 15.5 0 01-1.013 5.5 13.126 13.126 0 01-3.02 4.716 73.222 73.222 0 01-52.219 21.677 69.444 69.444 0 01-27.965-5.721 72.939 72.939 0 01-22.964-15.682 74.663 74.663 0 01-15.555-23.231 71.019 71.019 0 01-5.721-28.366 72.218 72.218 0 012.468-18.754 74.254 74.254 0 017.018-17.289 75.05 75.05 0 0111.057-14.934A71.257 71.257 0 01168.631 9.65a72.411 72.411 0 0120.1-2.759 73.779 73.779 0 0127.517 5.336 71.914 71.914 0 0124.254 16.231"/></g></g></g></svg>