<svg xmlns="http://www.w3.org/2000/svg" xmlns:xlink="http://www.w3.org/1999/xlink" width="512" height="512" viewBox="0 0 512 512">
  <defs>
    <clipPath id="clip-path">
      <rect id="Rettangolo_19068" data-name="Rettangolo 19068" width="388.452" height="160" fill="none"/>
    </clipPath>
    <clipPath id="clip-Tavola_da_disegno_2">
      <rect width="512" height="512"/>
    </clipPath>
  </defs>
  <g id="Tavola_da_disegno_2" data-name="Tavola da disegno – 2" clip-path="url(#clip-Tavola_da_disegno_2)">
    <rect width="512" height="512" fill="rgba(255,255,255,0)"/>
    <rect id="Rettangolo_19150" data-name="Rettangolo 19150" width="512" height="512" rx="90" fill="#fff"/>
    <g id="Raggruppa_214" data-name="Raggruppa 214" transform="translate(61.774 176)">
      <g id="Raggruppa_209" data-name="Raggruppa 209" transform="translate(0 0)" clip-path="url(#clip-path)">
        <path id="Tracciato_8" data-name="Tracciato 8" d="M262.033,47.447v-.008a72.6,72.6,0,0,0-15.874-22.918A76.632,76.632,0,0,0,222.835,9.1a73.8,73.8,0,0,0-56.776.07A73.766,73.766,0,0,0,126.94,48.055a70.472,70.472,0,0,0-5.82,28.5,69.879,69.879,0,0,0,5.812,28.388,75.433,75.433,0,0,0,15.8,23.259,73.955,73.955,0,0,0,23.315,15.727,71.327,71.327,0,0,0,28.505,5.751,87.167,87.167,0,0,0,15.779-1.31,72.184,72.184,0,0,0,12.569-3.444,51.243,51.243,0,0,0,9.773-4.909,63.879,63.879,0,0,0,7.526-5.79,14.685,14.685,0,0,0,4.1-4.752,16.118,16.118,0,0,0,1.666-5.174,13.449,13.449,0,0,0-.265-5.089,16.3,16.3,0,0,0-2-4.8,17.545,17.545,0,0,0-3.2-3.921,11.652,11.652,0,0,0-4.068-2.462,15.105,15.105,0,0,0-6.958-.514,19.548,19.548,0,0,0-8.268,3.731c-6.211,5.745-15.43,8.774-26.658,8.774a43.951,43.951,0,0,1-12.992-1.916,41.451,41.451,0,0,1-11.346-5.509A42.157,42.157,0,0,1,161.126,104a39,39,0,0,1-6.117-11.4L154,89.642h99.487c4.5,0,7.995-1.27,10.708-3.879,2.665-2.6,3.959-5.916,3.959-10.2a72.807,72.807,0,0,0-6.117-28.115M238.07,65.665H153.084l.771-2.812A38.487,38.487,0,0,1,168.864,41.4,44.427,44.427,0,0,1,181,35.4a50.568,50.568,0,0,1,28.645-.171,43,43,0,0,1,12.243,5.828,40.172,40.172,0,0,1,9.554,9.39,37.592,37.592,0,0,1,5.876,12.414Z" transform="translate(120.302 3.433)" fill="#2cc9d5"/>
        <path id="Tracciato_9" data-name="Tracciato 9" d="M93.968,122.993H34.448l-6.516,15.956a13.886,13.886,0,0,1-8.144,7.806,15.6,15.6,0,0,1-5.665.895,15.06,15.06,0,0,1-5.84-1.3,13.607,13.607,0,0,1-4.826-3.309A12.653,12.653,0,0,1,.7,138.383a14.529,14.529,0,0,1-.668-5.448,17.35,17.35,0,0,1,1.4-5.774l49.3-114.327a15.016,15.016,0,0,1,5.328-6.562,14.364,14.364,0,0,1,21.174,6.452l49.632,114.436a16.4,16.4,0,0,1,1.407,5.665,15.568,15.568,0,0,1-.622,5.448,12.913,12.913,0,0,1-7.3,8.079,14.771,14.771,0,0,1-5.721,1.3,15.06,15.06,0,0,1-5.621-.951,14.562,14.562,0,0,1-4.824-2.98,15.575,15.575,0,0,1-3.482-4.77ZM46.236,93.8H81.951L64.2,50.688Z" transform="translate(0 3.944)" fill="#2cc9d5"/>
        <path id="Tracciato_10" data-name="Tracciato 10" d="M182.767,25.024a12.5,12.5,0,0,1,3.143,4.66,14.834,14.834,0,0,1,0,10.783,13.5,13.5,0,0,1-3.143,4.772,14.155,14.155,0,0,1-4.826,3.2,15.688,15.688,0,0,1-5.5,1.116,14.315,14.315,0,0,1-5.5-.951,13.108,13.108,0,0,1-4.724-3.034,42.819,42.819,0,0,0-14.65-9.761,45.252,45.252,0,0,0-16.677-3.143,42.132,42.132,0,0,0-16.68,3.363,44.716,44.716,0,0,0-13.917,9.267,43.478,43.478,0,0,0-9.5,13.929,42.826,42.826,0,0,0-3.482,17.236,43.912,43.912,0,0,0,26,40.319,42.192,42.192,0,0,0,17.126,3.692,42.941,42.941,0,0,0,16.56-2.96,45.7,45.7,0,0,0,14.888-9.944,12.417,12.417,0,0,1,4.714-2.978,16.4,16.4,0,0,1,11,0,13.122,13.122,0,0,1,4.714,2.868,14.2,14.2,0,0,1,3.2,4.826,14.792,14.792,0,0,1,1.068,5.5,15.5,15.5,0,0,1-1.013,5.5A13.126,13.126,0,0,1,182.548,128a73.222,73.222,0,0,1-52.219,21.677,69.444,69.444,0,0,1-27.965-5.721A72.939,72.939,0,0,1,79.4,128.274a74.663,74.663,0,0,1-15.555-23.231,71.019,71.019,0,0,1-5.721-28.366,72.218,72.218,0,0,1,2.468-18.754,74.254,74.254,0,0,1,7.018-17.289A75.05,75.05,0,0,1,78.667,25.7,71.257,71.257,0,0,1,110.9,6.216,72.411,72.411,0,0,1,131,3.457a73.779,73.779,0,0,1,27.517,5.336,71.914,71.914,0,0,1,24.254,16.231" transform="translate(57.731 3.434)" fill="#2cc9d5"/>
      </g>
    </g>
  </g>
</svg>
