<svg xmlns="http://www.w3.org/2000/svg" xmlns:xlink="http://www.w3.org/1999/xlink" width="512" height="512" viewBox="0 0 512 512">
  <defs>
    <clipPath id="clip-path">
      <rect id="Rettangolo_19068" data-name="Rettangolo 19068" width="509.843" height="210" fill="none"/>
    </clipPath>
    <clipPath id="clip-Tavola_da_disegno_3">
      <rect width="512" height="512"/>
    </clipPath>
  </defs>
  <g id="Tavola_da_disegno_3" data-name="Tavola da disegno – 3" clip-path="url(#clip-Tavola_da_disegno_3)">
    <rect width="512" height="512" fill="rgba(255,255,255,0)"/>
    <g id="Raggruppa_214" data-name="Raggruppa 214" transform="translate(1.078 151)">
      <g id="Raggruppa_209" data-name="Raggruppa 209" transform="translate(0 0)" clip-path="url(#clip-path)">
        <path id="Tracciato_8" data-name="Tracciato 8" d="M306.068,61.194v-.01A95.292,95.292,0,0,0,285.233,31.1a100.58,100.58,0,0,0-30.611-20.241c-23.32-9.952-51.6-9.829-74.518.092a96.818,96.818,0,0,0-51.344,51.038,92.494,92.494,0,0,0-7.639,37.4,91.717,91.717,0,0,0,7.629,37.259,99.005,99.005,0,0,0,20.743,30.528,97.066,97.066,0,0,0,30.6,20.641,93.617,93.617,0,0,0,37.413,7.548,114.4,114.4,0,0,0,20.709-1.719,94.74,94.74,0,0,0,16.5-4.521,67.255,67.255,0,0,0,12.827-6.444,83.838,83.838,0,0,0,9.879-7.6,19.273,19.273,0,0,0,5.381-6.237,21.154,21.154,0,0,0,2.187-6.792,17.651,17.651,0,0,0-.348-6.679,21.394,21.394,0,0,0-2.627-6.3,23.029,23.029,0,0,0-4.194-5.146,15.293,15.293,0,0,0-5.34-3.231,19.826,19.826,0,0,0-9.133-.675c-3.252.471-6.812,2.046-10.852,4.9-8.152,7.54-20.252,11.516-34.988,11.516a57.686,57.686,0,0,1-17.052-2.514,54.4,54.4,0,0,1-14.891-7.231,55.331,55.331,0,0,1-11.935-11.281,51.184,51.184,0,0,1-8.029-14.964l-1.329-3.877H294.847c5.9,0,10.493-1.666,14.054-5.091,3.5-3.406,5.2-7.765,5.2-13.389a95.56,95.56,0,0,0-8.029-36.9M274.617,85.106H163.072l1.012-3.691a50.514,50.514,0,0,1,19.7-28.158,58.31,58.31,0,0,1,15.924-7.875,66.371,66.371,0,0,1,37.6-.225,56.438,56.438,0,0,1,16.068,7.65,52.723,52.723,0,0,1,12.539,12.325,49.339,49.339,0,0,1,7.712,16.293Z" transform="translate(195.747 5.586)" fill="#2cc9d5"/>
        <path id="Tracciato_9" data-name="Tracciato 9" d="M123.333,160.187H45.213L36.661,181.13a18.225,18.225,0,0,1-10.69,10.245,20.467,20.467,0,0,1-7.435,1.175,19.766,19.766,0,0,1-7.665-1.7A17.859,17.859,0,0,1,4.537,186.5a16.606,16.606,0,0,1-3.621-6.117,19.07,19.07,0,0,1-.876-7.15,22.772,22.772,0,0,1,1.834-7.579L66.587,15.6A19.708,19.708,0,0,1,73.58,6.992a18.853,18.853,0,0,1,27.791,8.468l65.142,150.2a21.529,21.529,0,0,1,1.847,7.435,20.434,20.434,0,0,1-.816,7.15,16.948,16.948,0,0,1-9.583,10.6,19.387,19.387,0,0,1-7.508,1.7,19.766,19.766,0,0,1-7.378-1.248,19.112,19.112,0,0,1-6.331-3.911,20.442,20.442,0,0,1-4.57-6.26ZM60.685,121.877h46.876L84.267,65.287Z" transform="translate(-0.001 6.417)" fill="#2cc9d5"/>
        <path id="Tracciato_10" data-name="Tracciato 10" d="M221.718,31.764a16.4,16.4,0,0,1,4.126,6.117,19.47,19.47,0,0,1,0,14.153,17.719,17.719,0,0,1-4.126,6.263,18.578,18.578,0,0,1-6.334,4.2,20.591,20.591,0,0,1-7.221,1.465,18.789,18.789,0,0,1-7.221-1.248,17.2,17.2,0,0,1-6.2-3.982,56.2,56.2,0,0,0-19.229-12.811,59.393,59.393,0,0,0-21.889-4.126A55.3,55.3,0,0,0,131.733,46.2a58.69,58.69,0,0,0-18.266,12.162A57.064,57.064,0,0,0,101,76.649a56.208,56.208,0,0,0-4.57,22.622,57.635,57.635,0,0,0,34.125,52.919,55.377,55.377,0,0,0,22.478,4.845,56.359,56.359,0,0,0,21.735-3.885,59.979,59.979,0,0,0,19.54-13.052,16.3,16.3,0,0,1,6.187-3.909,21.522,21.522,0,0,1,14.444,0,17.223,17.223,0,0,1,6.187,3.765,18.636,18.636,0,0,1,4.2,6.334,19.414,19.414,0,0,1,1.4,7.221,20.349,20.349,0,0,1-1.329,7.221,17.228,17.228,0,0,1-3.971,6.19,96.1,96.1,0,0,1-68.538,28.451,91.145,91.145,0,0,1-36.7-7.508A95.733,95.733,0,0,1,86.048,167.28a98,98,0,0,1-20.416-30.491,93.212,93.212,0,0,1-7.508-37.23,94.786,94.786,0,0,1,3.239-24.615,97.459,97.459,0,0,1,9.211-22.692,98.5,98.5,0,0,1,14.514-19.6A93.525,93.525,0,0,1,127.393,7.078a95.04,95.04,0,0,1,26.376-3.621,96.835,96.835,0,0,1,36.116,7,94.387,94.387,0,0,1,31.833,21.3" transform="translate(93.935 5.588)" fill="#2cc9d5"/>
      </g>
    </g>
  </g>
</svg>
