<svg xmlns="http://www.w3.org/2000/svg" xmlns:xlink="http://www.w3.org/1999/xlink" width="425.197" height="80.271" viewBox="0 0 425.197 80.271">
  <defs>
    <clipPath id="clip-path">
      <rect id="Rettangolo_19127" data-name="Rettangolo 19127" width="425.197" height="80.271" transform="translate(0 0)" fill="none"/>
    </clipPath>
  </defs>
  <g id="Raggruppa_226" data-name="Raggruppa 226" transform="translate(0 0)" clip-path="url(#clip-path)">
    <path id="Tracciato_100" data-name="Tracciato 100" d="M219.91,39.557V57.513a2.774,2.774,0,0,1-.749,1.987,2.6,2.6,0,0,1-1.987.791,2.809,2.809,0,0,1-1.968-.791,2.591,2.591,0,0,1-.853-1.987v-18a19.887,19.887,0,0,1,1.453-7.61,19.561,19.561,0,0,1,4-6.2,18.812,18.812,0,0,1,6.007-4.19,18.31,18.31,0,0,1,7.524-1.537,18.108,18.108,0,0,1,7.438,1.517,17.747,17.747,0,0,1,5.879,4.167,19.755,19.755,0,0,1,3.868,6.2,20.409,20.409,0,0,1,1.41,7.61V57.513a2.727,2.727,0,0,1-.769,1.987,2.563,2.563,0,0,1-1.922.791,2.836,2.836,0,0,1-2.032-.791,2.624,2.624,0,0,1-.834-1.987V39.687a1.456,1.456,0,0,1,.045-.43,15.752,15.752,0,0,0-1.071-5.322,13.662,13.662,0,0,0-2.714-4.359,12.868,12.868,0,0,0-4.105-2.951,12.279,12.279,0,0,0-5.193-1.089,13.079,13.079,0,0,0-9.534,4,13.7,13.7,0,0,0-2.821,4.359A14.641,14.641,0,0,0,219.91,39.3v.257Z" fill="#f594c9"/>
    <path id="Tracciato_101" data-name="Tracciato 101" d="M254.923,40.414a20.045,20.045,0,0,1,1.6-7.974,20.352,20.352,0,0,1,4.382-6.5,20.851,20.851,0,0,1,6.5-4.359,20.33,20.33,0,0,1,15.773-.022,20.827,20.827,0,0,1,6.437,4.3,20.214,20.214,0,0,1,4.359,6.392,20.565,20.565,0,0,1,1.69,7.866v17.23a2.853,2.853,0,0,1-.814,2.072,2.741,2.741,0,0,1-2.052.834,2.489,2.489,0,0,1-1.945-.834,2.989,2.989,0,0,1-.749-2.072l-.043-3.378a22.459,22.459,0,0,1-6.583,4.958,17.976,17.976,0,0,1-8.164,1.882,19.725,19.725,0,0,1-7.909-1.6,20.521,20.521,0,0,1-10.881-10.878,19.781,19.781,0,0,1-1.6-7.909m5.557,0a14.251,14.251,0,0,0,1.153,5.707,15.181,15.181,0,0,0,3.164,4.7,14.878,14.878,0,0,0,4.723,3.209,15,15,0,0,0,11.63,0,14.636,14.636,0,0,0,4.7-3.209,15.076,15.076,0,0,0,3.121-4.7,14.5,14.5,0,0,0,1.131-5.707,14.68,14.68,0,0,0-1.154-5.8,15.268,15.268,0,0,0-3.14-4.743,14.453,14.453,0,0,0-4.681-3.186A14.878,14.878,0,0,0,264.8,29.876a15.058,15.058,0,0,0-3.164,4.743,14.68,14.68,0,0,0-1.153,5.8" fill="#f594c9"/>
    <path id="Tracciato_102" data-name="Tracciato 102" d="M306.565,39.557V57.513a2.774,2.774,0,0,1-.749,1.987,2.6,2.6,0,0,1-1.987.791,2.809,2.809,0,0,1-1.968-.791,2.591,2.591,0,0,1-.853-1.987v-18a19.887,19.887,0,0,1,1.453-7.61,19.56,19.56,0,0,1,4-6.2,18.812,18.812,0,0,1,6.007-4.19,18.314,18.314,0,0,1,7.524-1.537,18.108,18.108,0,0,1,7.438,1.517,17.748,17.748,0,0,1,5.879,4.167,19.755,19.755,0,0,1,3.868,6.2,20.41,20.41,0,0,1,1.41,7.61V57.513a2.727,2.727,0,0,1-.769,1.987,2.563,2.563,0,0,1-1.922.791,2.836,2.836,0,0,1-2.032-.791,2.624,2.624,0,0,1-.834-1.987V39.687a1.457,1.457,0,0,1,.045-.43A15.751,15.751,0,0,0,332,33.935a13.661,13.661,0,0,0-2.714-4.359,12.868,12.868,0,0,0-4.1-2.951,12.279,12.279,0,0,0-5.193-1.089,13.079,13.079,0,0,0-9.534,4,13.7,13.7,0,0,0-2.821,4.359,14.641,14.641,0,0,0-1.069,5.408v.257Z" fill="#f594c9"/>
    <path id="Tracciato_103" data-name="Tracciato 103" d="M348.888,39.557V57.513a2.774,2.774,0,0,1-.749,1.987,2.6,2.6,0,0,1-1.987.791,2.809,2.809,0,0,1-1.968-.791,2.591,2.591,0,0,1-.853-1.987v-18a19.887,19.887,0,0,1,1.453-7.61,19.561,19.561,0,0,1,4-6.2,18.812,18.812,0,0,1,6.007-4.19,18.314,18.314,0,0,1,7.524-1.537A18.108,18.108,0,0,1,369.75,21.5a17.747,17.747,0,0,1,5.879,4.167,19.755,19.755,0,0,1,3.868,6.2,20.41,20.41,0,0,1,1.41,7.61V57.513a2.727,2.727,0,0,1-.769,1.987,2.563,2.563,0,0,1-1.922.791,2.836,2.836,0,0,1-2.032-.791,2.624,2.624,0,0,1-.834-1.987V39.687a1.457,1.457,0,0,1,.045-.43,15.751,15.751,0,0,0-1.071-5.322,13.661,13.661,0,0,0-2.714-4.359,12.868,12.868,0,0,0-4.1-2.951,12.279,12.279,0,0,0-5.193-1.089,13.079,13.079,0,0,0-9.534,4,13.7,13.7,0,0,0-2.821,4.359,14.641,14.641,0,0,0-1.069,5.408v.257Z" fill="#f594c9"/>
    <path id="Tracciato_104" data-name="Tracciato 104" d="M391.68,41.225a13.659,13.659,0,0,0,1.111,5.473,14.243,14.243,0,0,0,2.993,4.446,13.979,13.979,0,0,0,4.424,2.971,13.982,13.982,0,0,0,15.327-2.993,14.436,14.436,0,0,0,2.994-4.489,13.969,13.969,0,0,0,1.111-5.578V23.312a2.641,2.641,0,0,1,.833-1.965,2.753,2.753,0,0,1,1.988-.814,2.569,2.569,0,0,1,1.987.814,2.8,2.8,0,0,1,.749,1.965V41.267a18.867,18.867,0,0,1-1.3,7.011,19.967,19.967,0,0,1-3.548,5.857,19.431,19.431,0,0,1-5.323,4.254,18.813,18.813,0,0,1-6.626,2.16V71.921a2.734,2.734,0,0,1-.814,2.01,2.681,2.681,0,0,1-1.964.811,2.646,2.646,0,0,1-2.01-.811,2.811,2.811,0,0,1-.769-2.01V60.549a18.939,18.939,0,0,1-6.606-2.225,19.818,19.818,0,0,1-5.3-4.274,19.583,19.583,0,0,1-3.528-5.857,19.094,19.094,0,0,1-1.283-7.01V23.312a2.715,2.715,0,0,1,.791-1.965,2.608,2.608,0,0,1,1.945-.814,2.745,2.745,0,0,1,1.987.814,2.638,2.638,0,0,1,.834,1.965Z" fill="#f594c9"/>
    <path id="Tracciato_105" data-name="Tracciato 105" d="M203.648,80.271a.816.816,0,0,1-.815-.815V.815a.815.815,0,0,1,1.63,0V79.456a.816.816,0,0,1-.815.815" fill="#adadad"/>
    <path id="Tracciato_106" data-name="Tracciato 106" d="M191.815,25.526v0a36.424,36.424,0,0,0-7.964-11.5,38.446,38.446,0,0,0-11.7-7.737,37.027,37.027,0,0,0-28.484.035A37.008,37.008,0,0,0,124.04,25.831a35.355,35.355,0,0,0-2.92,14.3,35.058,35.058,0,0,0,2.916,14.242,37.844,37.844,0,0,0,7.929,11.669,37.1,37.1,0,0,0,11.7,7.89,35.784,35.784,0,0,0,14.3,2.885,43.731,43.731,0,0,0,7.916-.657,36.214,36.214,0,0,0,6.306-1.728,25.708,25.708,0,0,0,4.9-2.463,32.048,32.048,0,0,0,3.776-2.905,7.368,7.368,0,0,0,2.057-2.384,8.087,8.087,0,0,0,.836-2.6,6.748,6.748,0,0,0-.133-2.553,8.178,8.178,0,0,0-1-2.408,8.8,8.8,0,0,0-1.6-1.967,5.845,5.845,0,0,0-2.041-1.235,7.578,7.578,0,0,0-3.491-.258,9.807,9.807,0,0,0-4.148,1.872c-3.116,2.882-7.741,4.4-13.374,4.4a22.05,22.05,0,0,1-6.518-.961,20.8,20.8,0,0,1-5.692-2.764,21.15,21.15,0,0,1-4.562-4.312,19.565,19.565,0,0,1-3.069-5.72l-.508-1.482h49.912a7.357,7.357,0,0,0,5.372-1.946,6.749,6.749,0,0,0,1.986-5.118,36.527,36.527,0,0,0-3.069-14.105m-12.022,9.14H137.156l.387-1.411a19.309,19.309,0,0,1,7.53-10.763,22.289,22.289,0,0,1,6.087-3.01,25.37,25.37,0,0,1,14.371-.086,21.573,21.573,0,0,1,6.142,2.924,20.154,20.154,0,0,1,4.793,4.711,18.859,18.859,0,0,1,2.948,6.228Z" fill="#2cc9d5"/>
    <path id="Tracciato_107" data-name="Tracciato 107" d="M47.143,63.683H17.282l-3.269,8.005A6.966,6.966,0,0,1,9.927,75.6a7.824,7.824,0,0,1-2.842.449,7.556,7.556,0,0,1-2.93-.651,6.826,6.826,0,0,1-2.421-1.66A6.348,6.348,0,0,1,.35,71.4a7.289,7.289,0,0,1-.335-2.733,8.7,8.7,0,0,1,.7-2.9L25.452,8.417a7.533,7.533,0,0,1,2.673-3.292A7.207,7.207,0,0,1,38.748,8.362l24.9,57.412a8.229,8.229,0,0,1,.706,2.842,7.811,7.811,0,0,1-.312,2.733A6.478,6.478,0,0,1,60.379,75.4a7.411,7.411,0,0,1-2.87.651,7.555,7.555,0,0,1-2.82-.477,7.306,7.306,0,0,1-2.42-1.495,7.814,7.814,0,0,1-1.747-2.393ZM23.2,49.039H41.114l-8.9-21.631Z" fill="#2cc9d5"/>
    <path id="Tracciato_108" data-name="Tracciato 108" d="M120.656,14.277a6.27,6.27,0,0,1,1.577,2.338,7.442,7.442,0,0,1,0,5.41,6.773,6.773,0,0,1-1.577,2.394,7.1,7.1,0,0,1-2.421,1.6,7.871,7.871,0,0,1-2.76.56,7.182,7.182,0,0,1-2.76-.477,6.576,6.576,0,0,1-2.37-1.522,21.482,21.482,0,0,0-7.35-4.9,22.7,22.7,0,0,0-8.367-1.577A21.137,21.137,0,0,0,86.26,19.8a22.434,22.434,0,0,0-6.982,4.649,21.813,21.813,0,0,0-4.764,6.988,21.485,21.485,0,0,0-1.747,8.647A22.031,22.031,0,0,0,85.811,60.309,21.167,21.167,0,0,0,94.4,62.161a21.543,21.543,0,0,0,8.308-1.485,22.926,22.926,0,0,0,7.469-4.989,6.23,6.23,0,0,1,2.365-1.494,8.226,8.226,0,0,1,5.521,0,6.583,6.583,0,0,1,2.365,1.439,7.123,7.123,0,0,1,1.605,2.421,7.421,7.421,0,0,1,.536,2.76,7.778,7.778,0,0,1-.508,2.76,6.585,6.585,0,0,1-1.518,2.366,36.735,36.735,0,0,1-26.2,10.875,34.84,34.84,0,0,1-14.03-2.87A36.593,36.593,0,0,1,68.8,66.077a37.458,37.458,0,0,1-7.8-11.655,35.63,35.63,0,0,1-2.87-14.231,36.231,36.231,0,0,1,1.238-9.409,37.253,37.253,0,0,1,3.521-8.674,37.652,37.652,0,0,1,5.548-7.492A35.749,35.749,0,0,1,84.6,4.841,36.328,36.328,0,0,1,94.683,3.457a37.015,37.015,0,0,1,13.805,2.677,36.079,36.079,0,0,1,12.168,8.143" fill="#2cc9d5"/>
  </g>
</svg>
