<svg id="Raggruppa_233" data-name="Raggruppa 233" xmlns="http://www.w3.org/2000/svg" xmlns:xlink="http://www.w3.org/1999/xlink" width="30" height="30" viewBox="0 0 30 30">
  <defs>
    <clipPath id="clip-path">
      <rect id="Rettangolo_19133" data-name="Rettangolo 19133" width="30" height="30" fill="none" stroke="#141518" stroke-width="1.25"/>
    </clipPath>
  </defs>
  <g id="Raggruppa_232" data-name="Raggruppa 232" clip-path="url(#clip-path)">
    <path id="Tracciato_119" data-name="Tracciato 119" d="M37,19.365q-.091-.337-.2-.668c-.064-.2-.131-.393-.2-.586A14.39,14.39,0,0,0,25.193,8.9c-.327-.047-.657-.083-.99-.108q-.536-.04-1.081-.04-.507,0-1,.035t-.985.1A14.388,14.388,0,0,0,9.648,18.11c-.065.175-.127.351-.185.529q-.117.359-.216.726a14.47,14.47,0,0,0,0,7.513c.048.177.1.353.154.527q.114.368.249.727A14.383,14.383,0,0,0,21.2,37.365q.488.066.987.1.463.03.936.03.511,0,1.013-.035t.99-.1a14.388,14.388,0,0,0,11.47-9.221q.124-.331.231-.67c.061-.193.119-.388.171-.585a14.459,14.459,0,0,0,0-7.513ZM35.9,18.11H29.627a21.9,21.9,0,0,0-3.839-8.454A13.745,13.745,0,0,1,35.9,18.11Zm-6.739,8.768H17.152a22.785,22.785,0,0,1-.013-7.513H29.174a22.784,22.784,0,0,1-.011,7.513ZM21.52,9.489A13.877,13.877,0,0,1,24.8,9.5a21.133,21.133,0,0,1,4.127,8.611H17.386A21.127,21.127,0,0,1,21.52,9.489Zm-.982.15a21.9,21.9,0,0,0-3.852,8.47H10.341A13.744,13.744,0,0,1,20.539,9.64ZM9.4,23.121a13.671,13.671,0,0,1,.522-3.757h6.53a23.451,23.451,0,0,0,.011,7.513H9.918A13.706,13.706,0,0,1,9.4,23.121Zm.944,5.011H16.7a21.882,21.882,0,0,0,3.9,8.483A13.745,13.745,0,0,1,10.341,28.133Zm14.4,8.618a13.835,13.835,0,0,1-3.153.009A21.113,21.113,0,0,1,17.4,28.133h11.51A21.122,21.122,0,0,1,24.737,36.751Zm.987-.152a21.881,21.881,0,0,0,3.887-8.467H35.9A13.744,13.744,0,0,1,25.724,36.6Zm10.6-9.721h-6.47a23.451,23.451,0,0,0,.012-7.513h6.458a13.787,13.787,0,0,1,0,7.513Z" transform="translate(-8.121 -8.121)" fill="none" stroke="#141518" stroke-miterlimit="10" stroke-width="1.25"/>
    <path id="Tracciato_120" data-name="Tracciato 120" d="M41.088,21.13a21.9,21.9,0,0,0-3.852,8.47H30.89A13.744,13.744,0,0,1,41.088,21.13Z" transform="translate(-28.67 -19.612)" fill="none" stroke="#141518" stroke-miterlimit="10" stroke-width="1.25"/>
    <path id="Tracciato_121" data-name="Tracciato 121" d="M24.813,163.983H18.271a13.8,13.8,0,0,1,0-7.513H24.8a23.451,23.451,0,0,0,.011,7.513Z" transform="translate(-16.475 -145.227)" fill="none" stroke="#141518" stroke-miterlimit="10" stroke-width="1.25"/>
    <path id="Tracciato_122" data-name="Tracciato 122" d="M41.151,286.973A13.745,13.745,0,0,1,30.89,278.49h6.362A21.882,21.882,0,0,0,41.151,286.973Z" transform="translate(-28.67 -258.479)" fill="none" stroke="#141518" stroke-miterlimit="10" stroke-width="1.25"/>
    <path id="Tracciato_123" data-name="Tracciato 123" d="M140.482,26.463H128.94a21.127,21.127,0,0,1,4.134-8.621,13.877,13.877,0,0,1,3.281.009A21.133,21.133,0,0,1,140.482,26.463Z" transform="translate(-119.675 -16.475)" fill="none" stroke="#141518" stroke-miterlimit="10" stroke-width="1.25"/>
    <path id="Tracciato_124" data-name="Tracciato 124" d="M140.67,278.49a21.122,21.122,0,0,1-4.175,8.618,13.833,13.833,0,0,1-3.153.009,21.112,21.112,0,0,1-4.182-8.628Z" transform="translate(-119.879 -258.479)" fill="none" stroke="#141518" stroke-miterlimit="10" stroke-width="1.25"/>
    <path id="Tracciato_125" data-name="Tracciato 125" d="M133.9,160.191a22.681,22.681,0,0,1-.318,3.793H121.568a22.785,22.785,0,0,1-.013-7.513h12.035A22.618,22.618,0,0,1,133.9,160.191Z" transform="translate(-112.537 -145.227)" fill="none" stroke="#141518" stroke-miterlimit="10" stroke-width="1.25"/>
    <path id="Tracciato_126" data-name="Tracciato 126" d="M255.974,29.814H249.7a21.9,21.9,0,0,0-3.839-8.454A13.745,13.745,0,0,1,255.974,29.814Z" transform="translate(-228.193 -19.825)" fill="none" stroke="#141518" stroke-miterlimit="10" stroke-width="1.25"/>
    <path id="Tracciato_127" data-name="Tracciato 127" d="M255.148,278.49a13.744,13.744,0,0,1-10.178,8.467,21.881,21.881,0,0,0,3.887-8.467Z" transform="translate(-227.367 -258.479)" fill="none" stroke="#141518" stroke-miterlimit="10" stroke-width="1.25"/>
    <path id="Tracciato_128" data-name="Tracciato 128" d="M309.442,160.227a13.671,13.671,0,0,1-.522,3.757h-6.47a23.45,23.45,0,0,0,.012-7.513h6.458A13.7,13.7,0,0,1,309.442,160.227Z" transform="translate(-280.717 -145.227)" fill="none" stroke="#141518" stroke-miterlimit="10" stroke-width="1.25"/>
    <path id="Tracciato_129" data-name="Tracciato 129" d="M41.088,21.13a21.9,21.9,0,0,0-3.852,8.47H30.89A13.744,13.744,0,0,1,41.088,21.13Z" transform="translate(-28.67 -19.612)" fill="none" stroke="#141518" stroke-miterlimit="10" stroke-width="1.25"/>
    <path id="Tracciato_130" data-name="Tracciato 130" d="M24.813,163.983H18.271a13.8,13.8,0,0,1,0-7.513H24.8a23.451,23.451,0,0,0,.011,7.513Z" transform="translate(-16.475 -145.227)" fill="none" stroke="#141518" stroke-miterlimit="10" stroke-width="1.25"/>
    <path id="Tracciato_131" data-name="Tracciato 131" d="M41.151,286.973A13.745,13.745,0,0,1,30.89,278.49h6.362A21.882,21.882,0,0,0,41.151,286.973Z" transform="translate(-28.67 -258.479)" fill="none" stroke="#141518" stroke-miterlimit="10" stroke-width="1.25"/>
    <path id="Tracciato_132" data-name="Tracciato 132" d="M140.482,26.463H128.94a21.127,21.127,0,0,1,4.134-8.621,13.877,13.877,0,0,1,3.281.009A21.133,21.133,0,0,1,140.482,26.463Z" transform="translate(-119.675 -16.475)" fill="none" stroke="#141518" stroke-miterlimit="10" stroke-width="1.25"/>
    <path id="Tracciato_133" data-name="Tracciato 133" d="M140.67,278.49a21.122,21.122,0,0,1-4.175,8.618,13.833,13.833,0,0,1-3.153.009,21.112,21.112,0,0,1-4.182-8.628Z" transform="translate(-119.879 -258.479)" fill="none" stroke="#141518" stroke-miterlimit="10" stroke-width="1.25"/>
    <path id="Tracciato_134" data-name="Tracciato 134" d="M133.9,160.191a22.681,22.681,0,0,1-.318,3.793H121.568a22.785,22.785,0,0,1-.013-7.513h12.035A22.618,22.618,0,0,1,133.9,160.191Z" transform="translate(-112.537 -145.227)" fill="none" stroke="#141518" stroke-miterlimit="10" stroke-width="1.25"/>
    <path id="Tracciato_135" data-name="Tracciato 135" d="M255.974,29.814H249.7a21.9,21.9,0,0,0-3.839-8.454A13.745,13.745,0,0,1,255.974,29.814Z" transform="translate(-228.193 -19.825)" fill="none" stroke="#141518" stroke-miterlimit="10" stroke-width="1.25"/>
    <path id="Tracciato_136" data-name="Tracciato 136" d="M255.148,278.49a13.744,13.744,0,0,1-10.178,8.467,21.881,21.881,0,0,0,3.887-8.467Z" transform="translate(-227.367 -258.479)" fill="none" stroke="#141518" stroke-miterlimit="10" stroke-width="1.25"/>
    <path id="Tracciato_137" data-name="Tracciato 137" d="M309.442,160.227a13.671,13.671,0,0,1-.522,3.757h-6.47a23.45,23.45,0,0,0,.012-7.513h6.458A13.7,13.7,0,0,1,309.442,160.227Z" transform="translate(-280.717 -145.227)" fill="none" stroke="#141518" stroke-miterlimit="10" stroke-width="1.25"/>
  </g>
</svg>
