<svg fill="#292829" xmlns="http://www.w3.org/2000/svg" viewBox="0 0 24 24" width="480" height="480"><path d="M12 2C6.486 2 2 6.486 2 12s4.486 10 10 10 10-4.486 10-10S17.514 2 12 2zm6.918 6h-2.305c-.247-1.199-.605-2.265-1.052-3.154A8.06 8.06 0 0118.918 8zM20 12c0 .692-.097 1.359-.263 2h-2.83a21.533 21.533 0 000-4h2.83c.166.641.263 1.308.263 2zm-8 8c-.843 0-1.949-1.481-2.555-4h5.109c-.605 2.519-1.711 4-2.554 4zm-2.892-6C9.041 13.371 9 12.707 9 12s.041-1.371.108-2h5.784c.067.629.108 1.293.108 2s-.041 1.371-.108 2H9.108zM4 12c0-.692.097-1.359.263-2h2.83a21.533 21.533 0 000 4h-2.83A7.953 7.953 0 014 12zm8-8c.843 0 1.949 1.481 2.555 4h-5.11c.606-2.519 1.712-4 2.555-4zm-3.56.846C7.993 5.735 7.635 6.801 7.388 8H5.082A8.056 8.056 0 018.44 4.846zM5.082 16h2.305c.247 1.199.605 2.265 1.052 3.154A8.06 8.06 0 015.082 16zm10.478 3.154c.447-.889.804-1.955 1.052-3.154h2.305a8.048 8.048 0 01-3.357 3.154z"/></svg>